<svg id="Calque_3" data-name="Calque 3" xmlns="http://www.w3.org/2000/svg" viewBox="0 0 140.99 80.48"><defs><style>.cls-1{fill:#e6651d;}</style></defs><path class="cls-1" d="M93.08,42.3l-7,7-5.54,5.54L68.84,66.53l0,0c-.82.9-1.69,1.76-2.59,2.58l0,0c-.83.76-1.7,1.48-2.59,2.16a39.12,39.12,0,1,1,5-57.6l-5.43,5.43a31.44,31.44,0,1,0-2.32,44.44,33.4,33.4,0,0,0,2.38-2.38L87.65,36.86Z"/><path class="cls-1" d="M63.27,61.24a33.4,33.4,0,0,1-2.38,2.38Z"/><polygon class="cls-1" points="53.35 43.62 47.9 38.22 47.95 38.17 53.35 43.62"/><path class="cls-1" d="M98.68,8.89c-.05,0-.1,0-.15,0l0,0Z"/><path class="cls-1" d="M77.82,61.4l-5.4,5.4s0,0-.1,0l5.45-5.45C77.77,61.35,77.82,61.35,77.82,61.4Z"/><path class="cls-1" d="M53.41,51.87l-.12.15h0q-.34.4-.72.78l0,0h0Z"/><polyline class="cls-1" points="70.09 16.02 60.68 25.43 47.95 38.17 47.9 38.12 70.09 15.97 72.13 13.94"/><path class="cls-1" d="M73.46,12.6c-.44.45-.89.89-1.28,1.34h-.05Z"/><path class="cls-1" d="M73.46,12.6l3.67-3.71L83.77,2.3a3.9,3.9,0,0,1,2.77-1.19h14.57a39.12,39.12,0,0,1,1,78.23A38.83,38.83,0,0,1,72.42,66.8l5.4-5.4A31.43,31.43,0,0,0,126.67,22a32.7,32.7,0,0,0-7.92-7.78,31.61,31.61,0,0,0-15.26-5.35H89.76A3.9,3.9,0,0,0,87,10.08l-4.21,4.16-2.13,2.13a4.85,4.85,0,0,1-.55.49,28,28,0,0,0-2.37,2.38L75,22h0L53.4,43.62h0L48,38.17,60.68,25.43"/><polygon class="cls-1" points="74.95 22.02 75 22.02 53.4 43.62 74.95 22.02"/><path class="cls-1" d="M80.65,16.37,75,22l2.73-2.78a28,28,0,0,1,2.37-2.38A4.85,4.85,0,0,0,80.65,16.37Z"/><path class="cls-1" d="M53.29,52q-.34.4-.72.78c-.36.37-.74.73-1.13,1.07l1.1-1.1Z"/><path class="cls-1" d="M127.14,41.31A25.68,25.68,0,0,1,82.26,57l5.3-5.3.14-.14A18,18,0,1,0,103.32,22a18.29,18.29,0,0,0-1.83-.18c-1,0-1.88-.06-2.71,0L95.92,22a4,4,0,0,0-2.79,1.16L92,24.36l-8.27,8.11L59,57.16a25.84,25.84,0,0,1-4.82,4.28A25.7,25.7,0,1,1,59,23.37l-5.44,5.44a18,18,0,1,0-2.14,25.06c.39-.34.77-.7,1.13-1.07s.49-.51.72-.78h0l.12-.15L82.54,22.74c.2-.24.39-.49.62-.72L85.6,19.6a7.1,7.1,0,0,1,.67-.56h0l3.63-3.63a3.93,3.93,0,0,1,2.79-1.15h9.35a25.71,25.71,0,0,1,25.09,27.05Z"/><path class="cls-1" d="M102.06,14.25h0Z"/><path class="cls-1" d="M80.65,16.37,75,22l2.73-2.78a28,28,0,0,1,2.37-2.38A4.85,4.85,0,0,0,80.65,16.37Z"/><path class="cls-1" d="M102.06,14.25h0Z"/></svg>